<svg width="194" height="41" viewBox="0 0 194 41" fill="none" xmlns="http://www.w3.org/2000/svg">
<g clip-path="url(#clip0_449_8375)">
<path d="M6.51941 0V12.3224H6.65775C7.3927 11.0328 8.49512 9.98906 9.82667 9.32054C10.9939 8.72533 12.2823 8.40185 13.5922 8.38029C15.0578 8.33284 16.5147 8.57437 17.8851 9.08763C18.9227 9.50168 19.8349 10.1831 20.5266 11.0587C21.201 11.9688 21.6636 13.0168 21.8798 14.1296C22.1522 15.4494 22.2819 16.7908 22.2689 18.1364V32.706H15.7495V19.3312C15.7495 17.3773 15.4425 15.9195 14.8286 14.9577C14.2147 13.9959 13.1296 13.5128 11.5646 13.5128C9.78776 13.5128 8.50377 14.039 7.70829 15.0914C6.91282 16.1438 6.51509 17.8777 6.51509 20.293V32.7103H0V0H6.51941Z" fill="#FF6000"/>
<path d="M32.3706 27.03C33.3519 27.9788 34.757 28.449 36.5943 28.449C37.8005 28.4792 38.9894 28.1384 39.9924 27.4656C40.9392 26.81 41.5228 26.1156 41.739 25.3781H47.4802C46.5637 28.2204 45.1543 30.2475 43.2564 31.4681C41.3585 32.6887 39.0629 33.3012 36.3695 33.3012C34.6446 33.327 32.9283 33.0251 31.32 32.4084C29.8761 31.852 28.5748 30.9851 27.5069 29.868C26.4434 28.7336 25.622 27.3923 25.0946 25.9258C24.511 24.3084 24.2256 22.6048 24.2472 20.8882C24.2343 19.1974 24.5282 17.524 25.1205 15.9411C26.2186 12.9651 28.5056 10.5756 31.4367 9.34209C32.9974 8.68651 34.6792 8.35872 36.3695 8.38028C38.1983 8.33715 40.0097 8.73826 41.6525 9.54912C43.1138 10.2953 44.3761 11.3692 45.3489 12.689C46.3302 14.039 47.0392 15.5615 47.4413 17.1789C47.8736 18.8998 48.0293 20.6768 47.8996 22.4452H30.771C30.8618 24.5543 31.3978 26.0854 32.3792 27.03H32.3706ZM39.7416 14.5695C38.9591 13.7155 37.7746 13.2885 36.1836 13.2885C35.2887 13.2584 34.4025 13.4395 33.5897 13.8147C32.9499 14.1253 32.3879 14.5738 31.9382 15.1216C31.5405 15.609 31.2465 16.1697 31.0649 16.7692C30.9093 17.2781 30.8099 17.8 30.7666 18.3262H41.3715C41.0645 16.6786 40.5198 15.4278 39.7416 14.5695Z" fill="#FF6000"/>
<path d="M56.1136 9.02726V12.0507H56.2043C56.9177 10.8431 57.9725 9.87262 59.2349 9.25585C60.4973 8.66496 61.8807 8.37167 63.2771 8.38461C64.9459 8.34148 66.6017 8.70378 68.0975 9.437C69.4074 10.1098 70.5531 11.063 71.448 12.2319C72.3602 13.4438 73.0303 14.8197 73.4237 16.2861C73.856 17.8604 74.0722 19.4864 74.0679 21.1211C74.0722 22.6695 73.856 24.2136 73.4237 25.7016C73.0217 27.1119 72.3602 28.4317 71.4739 29.5963C70.6007 30.7263 69.4853 31.6493 68.2099 32.3006C66.7919 32.9993 65.2226 33.3443 63.6403 33.3098C62.2352 33.3228 60.8432 33.0165 59.5764 32.417C58.34 31.8261 57.2895 30.9161 56.5243 29.7817H56.4335V41.0043H49.9141V9.02726H56.1136ZM64.5871 27.8107C65.2917 27.3966 65.8883 26.823 66.3336 26.1372C66.7962 25.3997 67.1161 24.5845 67.2761 23.7305C67.462 22.8118 67.5528 21.8759 67.5528 20.9356C67.5528 19.9954 67.4534 19.0594 67.2545 18.1408C67.0729 17.2695 66.74 16.4414 66.2688 15.6909C65.8192 14.9836 65.2139 14.3884 64.5006 13.9485C63.7008 13.4827 62.7843 13.2541 61.8591 13.2843C60.921 13.2497 59.9872 13.4827 59.1744 13.9485C58.4654 14.3798 57.8688 14.9663 57.4278 15.6651C56.9652 16.4112 56.6496 17.235 56.4854 18.0933C56.2995 19.0293 56.2087 19.9781 56.2087 20.9356C56.2087 21.8759 56.3081 22.8118 56.507 23.7305C56.6799 24.5845 57.0085 25.3997 57.471 26.1372C59.0923 28.3929 62.1315 29.1046 64.5871 27.8107Z" fill="#FF6000"/>
<path d="M81.9908 26.823C82.2675 27.3146 82.6522 27.7373 83.1148 28.0608C83.5947 28.3929 84.1308 28.6301 84.6971 28.7681C85.3067 28.9234 85.9292 29.0011 86.5561 28.9967C87.0446 28.9967 87.5288 28.9407 88.0044 28.8372C88.4842 28.738 88.9511 28.5697 89.3835 28.3325C89.7942 28.1083 90.1444 27.7934 90.4167 27.4138C90.7064 26.9912 90.849 26.4822 90.8317 25.969C90.8317 24.9899 90.1833 24.2567 88.882 23.7693C87.1051 23.1525 85.2851 22.6608 83.439 22.3029C82.4879 22.0915 81.5628 21.8371 80.6592 21.5481C79.8075 21.2807 78.9948 20.8968 78.2469 20.4008C77.5552 19.9393 76.9715 19.3312 76.5478 18.6152C76.0982 17.813 75.8734 16.9029 75.9037 15.9799C75.8518 14.6687 76.1587 13.3705 76.7986 12.2232C77.3779 11.2657 78.1907 10.4678 79.1634 9.91143C80.188 9.32916 81.3077 8.92805 82.4706 8.72102C83.7114 8.49243 84.9738 8.37598 86.2362 8.37598C87.4942 8.37598 88.748 8.49674 89.9801 8.74259C91.1214 8.96255 92.2195 9.38092 93.2182 9.98044C94.1693 10.5627 94.9777 11.3563 95.583 12.2922C96.2531 13.3964 96.6421 14.6472 96.707 15.9325H90.5118C90.421 14.6817 89.9455 13.832 89.0895 13.3878C88.147 12.9263 87.1095 12.6977 86.0589 12.7235C85.6612 12.7235 85.2634 12.7494 84.8657 12.7926C84.4636 12.8314 84.0659 12.9306 83.6941 13.0902C83.3483 13.2368 83.0413 13.4654 82.7992 13.7544C82.5398 14.0865 82.4101 14.5005 82.4317 14.9232C82.4188 15.471 82.6522 15.9928 83.0759 16.3422C83.5731 16.7433 84.1394 17.0496 84.7533 17.235C85.5272 17.4852 86.3183 17.6922 87.1181 17.8518C88.0044 18.0372 88.9079 18.2356 89.8288 18.447C90.7669 18.6583 91.6964 18.9171 92.6086 19.2276C93.4689 19.5123 94.2817 19.9221 95.0209 20.4439C95.717 20.9399 96.2963 21.5783 96.72 22.3201C97.1739 23.1741 97.3944 24.1273 97.3641 25.0934C97.4895 27.7028 96.1882 30.1742 93.9661 31.5544C92.9026 32.2143 91.7267 32.6758 90.4989 32.9044C89.1889 33.1632 87.8617 33.2969 86.5258 33.2926C85.1683 33.2926 83.8152 33.1545 82.4836 32.8785C81.2385 32.6327 80.0496 32.1668 78.9688 31.5026C77.9399 30.86 77.0796 29.9887 76.4441 28.9622C75.7437 27.7589 75.3719 26.3916 75.3633 24.9985H81.5628C81.5455 25.6326 81.6925 26.2579 81.9994 26.8143L81.9908 26.823Z" fill="#FF6000"/>
<path d="M99.3672 5.36114V0H105.887V5.36114H99.3672ZM105.887 9.02725V32.7146H99.3672V9.02725H105.887Z" fill="#FF6000"/>
<path d="M120.754 0L116.894 5.84852H125.99V21.3281C125.99 24.8476 123.607 27.5087 120.08 27.5087C116.552 27.5087 114.408 24.9899 113.98 21.6602L107.832 22.8981C108.831 29.0312 113.214 33.3098 120.075 33.3098C127.511 33.3098 132.466 28.2721 132.466 21.3281V0H120.75H120.754Z" fill="#562898"/>
<path d="M161.806 0L157.945 5.84852H168.81V32.5938H175.29V5.84852H182.186L186.046 0H161.806Z" fill="#562898"/>
<path d="M188.329 0L184.469 5.84852H190.141L194.001 0H188.329Z" fill="#FF6000"/>
<path d="M141.379 19.3053H152.861L156.657 13.5517H141.379V5.84852H155.662L159.523 0H134.902V32.5938H155.662L159.523 26.7453H141.383V19.3053H141.379Z" fill="#562898"/>
</g>
<defs>
<clipPath id="clip0_449_8375">
<rect width="194" height="41" fill="white"/>
</clipPath>
</defs>
</svg>
